<?xml version="1.0" encoding="UTF-8"?>
<svg width="32" height="32" viewBox="0 0 32 32" fill="none" xmlns="http://www.w3.org/2000/svg">
  <defs>
    <linearGradient id="gradient" x1="0%" y1="0%" x2="100%" y2="100%">
      <stop offset="0%" style="stop-color:#22D3EE" />
      <stop offset="100%" style="stop-color:#3B82F6" />
    </linearGradient>
  </defs>
  <path d="M16 2C8.268 2 2 8.268 2 16s6.268 14 14 14 14-6.268 14-14S23.732 2 16 2zm0 25.2c-6.188 0-11.2-5.012-11.2-11.2S9.812 4.8 16 4.8 27.2 9.812 27.2 16 22.188 27.2 16 27.2z" fill="url(#gradient)"/>
  <path d="M16 7.2c-4.856 0-8.8 3.944-8.8 8.8s3.944 8.8 8.8 8.8 8.8-3.944 8.8-8.8-3.944-8.8-8.8-8.8zm0 14.4c-3.08 0-5.6-2.52-5.6-5.6s2.52-5.6 5.6-5.6 5.6 2.52 5.6 5.6-2.52 5.6-5.6 5.6z" fill="url(#gradient)"/>
  <path d="M16 12c-2.208 0-4 1.792-4 4s1.792 4 4 4 4-1.792 4-4-1.792-4-4-4z" fill="url(#gradient)"/>
</svg>
